# xmcd CD database file
#
# Track frame offsets:
#	150
#	28859
#	65761
#	108296
#	145233
#	191250
#	208058
#	237611
#
# Disc length: 3498 seconds
#
# Revision: 0
# Processed by: cddbd v1.5.1PL2 Copyright (c) Steve Scherf et al.
# Submitted via: CDex 1.50
#
DISCID=770da808
DTITLE=Buddy Rich - Argo, Emarcy and Verve Small Group Sessions Disc 4
DYEAR=2006
DGENRE=Jazz
TTITLE0=Lover Come Back To Me
TTITLE1=Topsy
TTITLE2=Undecided
TTITLE3=Broadway
TTITLE4=Jumpin' At The Woodside
TTITLE5=Pent Up House
TTITLE6=Bloody Mary
TTITLE7=That's Rich Man
EXTD=YEAR: 2006
EXTT0=
EXTT1=
EXTT2=
EXTT3=
EXTT4=
EXTT5=
EXTT6=
EXTT7=
PLAYORDER=
